<svg xmlns="http://www.w3.org/2000/svg" version="1.1" xmlns:xlink="http://www.w3.org/1999/xlink" width="200" height="200"><svg xmlns="http://www.w3.org/2000/svg" version="1.1" xmlns:xlink="http://www.w3.org/1999/xlink" viewBox="0 0 200 200"><rect width="200" height="200" fill="url('#gradient')"></rect><defs><linearGradient id="SvgjsLinearGradient1001" gradientTransform="rotate(45 0.5 0.5)"><stop offset="0%" stop-color="#50bc82"></stop><stop offset="100%" stop-color="#fcfbf3"></stop></linearGradient></defs><g><g fill="#2e2f30" transform="matrix(4.307361213010516,0,0,4.307361213010516,9.373083113265466,130.19632003312591)" stroke="#54a7a9" stroke-width="0.2"><path d="M6.69-4.82L4.50-4.82L4.50 0L1.07 0L1.07-14.22L6.75-14.22Q8.38-14.22 9.63-13.62Q10.89-13.02 11.58-11.91Q12.27-10.80 12.27-9.39L12.27-9.39Q12.27-7.31 10.78-6.07Q9.29-4.82 6.69-4.82L6.69-4.82ZM4.50-11.57L4.50-7.47L6.75-7.47Q7.74-7.47 8.27-7.97Q8.79-8.47 8.79-9.38L8.79-9.38Q8.79-10.37 8.25-10.97Q7.71-11.56 6.79-11.57L6.79-11.57L4.50-11.57ZM13.41-4.82L13.40-5.38Q13.40-6.96 14.01-8.20Q14.63-9.43 15.78-10.10Q16.93-10.76 18.49-10.76L18.49-10.76Q20.86-10.76 22.23-9.29Q23.59-7.82 23.59-5.29L23.59-5.29L23.59-5.18Q23.59-2.71 22.22-1.25Q20.85 0.20 18.51 0.20L18.51 0.20Q16.25 0.20 14.88-1.16Q13.52-2.51 13.41-4.82L13.41-4.82ZM16.70-5.77L16.69-5.18Q16.69-3.71 17.15-3.03Q17.61-2.34 18.51-2.34L18.51-2.34Q20.26-2.34 20.30-5.05L20.30-5.05L20.30-5.38Q20.30-8.22 18.49-8.22L18.49-8.22Q16.84-8.22 16.70-5.77L16.70-5.77ZM30.58-2.97L30.58-2.97Q30.58-3.39 30.14-3.64Q29.70-3.90 28.47-4.17Q27.24-4.44 26.44-4.89Q25.63-5.33 25.21-5.97Q24.79-6.60 24.79-7.42L24.79-7.42Q24.79-8.88 26.00-9.82Q27.20-10.76 29.14-10.76L29.14-10.76Q31.23-10.76 32.50-9.81Q33.77-8.87 33.77-7.32L33.77-7.32L30.47-7.32Q30.47-8.59 29.13-8.59L29.13-8.59Q28.61-8.59 28.26-8.31Q27.91-8.02 27.91-7.59L27.91-7.59Q27.91-7.15 28.34-6.88Q28.77-6.60 29.71-6.43Q30.65-6.25 31.37-6.01L31.37-6.01Q33.75-5.19 33.75-3.07L33.75-3.07Q33.75-1.62 32.47-0.71Q31.18 0.20 29.14 0.20L29.14 0.20Q27.78 0.20 26.72-0.29Q25.65-0.78 25.06-1.62Q24.46-2.46 24.46-3.39L24.46-3.39L27.54-3.39Q27.56-2.66 28.03-2.32Q28.50-1.98 29.23-1.98L29.23-1.98Q29.90-1.98 30.24-2.26Q30.58-2.53 30.58-2.97ZM35.83-13.19L39.12-13.19L39.12-10.57L40.86-10.57L40.86-8.28L39.12-8.28L39.12-3.45Q39.12-2.85 39.34-2.62Q39.55-2.38 40.19-2.38L40.19-2.38Q40.67-2.38 41.01-2.44L41.01-2.44L41.01-0.09Q40.12 0.20 39.15 0.20L39.15 0.20Q37.45 0.20 36.64-0.61Q35.83-1.41 35.83-3.04L35.83-3.04L35.83-8.28L34.48-8.28L34.48-10.57L35.83-10.57L35.83-13.19Z"></path></g></g></svg><style>@media (prefers-color-scheme: light) { :root { filter: none; } }
@media (prefers-color-scheme: dark) { :root { filter: none; } }
</style></svg>